$MeshFormat
4.1 0 8
$EndMeshFormat
$PhysicalNames
5
1 9 "bottom"
1 10 "right"
1 11 "top"
2 12 "1st block"
2 13 "2nd block"
$EndPhysicalNames
$Entities
10 8 2 0
1 0 0 0 0 
2 1 0 0 0 
3 1 1 0 0 
4 0 1 0 0 
5 0 0.5 0 0 
6 0.5 0.5 0 0 
7 1 0.5 0 0 
8 0 0.5 0 0 
9 0.5 0.5 0 0 
10 1 0.5 0 0 
1 0 0 0 1 0 0 1 9 2 1 -2 
2 1 0 0 1 0.5 0 1 10 2 2 -7 
3 0 0.5 0 1 0.5 0 0 2 7 -5 
4 0 0 0 0 0.5 0 1 10 2 5 -1 
5 0 0.5 0 1 0.5 0 0 2 5 -7 
6 1 0.5 0 1 1 0 1 10 2 7 -3 
7 0 1 0 1 1 0 1 11 2 3 -4 
8 0 0.5 0 0 1 0 1 10 2 4 -5 
1 0 0 0 1 0.5 0 1 12 4 1 2 3 4 
2 0 0.5 0 1 1 0 1 13 4 7 8 -3 6 
$EndEntities
$Nodes
15 380 1 380
0 1 0 1
1
0 0 0
0 2 0 1
2
1 0 0
0 3 0 1
3
1 1 0
0 4 0 1
4
0 1 0
0 5 0 1
5
0 0.5 0
0 7 0 1
6
1 0.5 0
1 1 0 18
7
8
9
10
11
12
13
14
15
16
17
18
19
20
21
22
23
24
0.05263157894726195 0 0
0.1052631578945429 0 0
0.1578947368417851 0 0
0.2105263157889999 0 0
0.2631578947362146 0 0
0.3157894736834294 0 0
0.3684210526306442 0 0
0.421052631577859 0 0
0.4736842105250738 0 0
0.5263157894724348 0 0
0.5789473684199421 0 0
0.6315789473674494 0 0
0.6842105263149566 0 0
0.7368421052624637 0 0
0.789473684209971 0 0
0.8421052631574782 0 0
0.8947368421049855 0 0
0.9473684210524927 0 0
1 2 0 8
25
26
27
28
29
30
31
32
1 0.05555555555545411 0
1 0.1111111111108571 0
1 0.1666666666662505 0
1 0.2222222222216439 0
1 0.2777777777771916 0
1 0.3333333333328937 0
1 0.3888888888885958 0
1 0.4444444444442979 0
1 3 0 18
33
34
35
36
37
38
39
40
41
42
43
44
45
46
47
48
49
50
0.9473684210524125 0.5 0
0.8947368421048248 0.5 0
0.8421052631576025 0.5 0
0.7894736842105994 0.5 0
0.7368421052635962 0.5 0
0.6842105263165927 0.5 0
0.6315789473695894 0.5 0
0.5789473684225861 0.5 0
0.5263157894755828 0.5 0
0.4736842105282874 0.5 0
0.4210526315806998 0.5 0
0.3684210526331123 0.5 0
0.3157894736855248 0.5 0
0.2631578947379374 0.5 0
0.21052631579035 0.5 0
0.1578947368427625 0.5 0
0.1052631578951749 0.5 0
0.05263157894758741 0.5 0
1 4 0 8
51
52
53
54
55
56
57
58
0 0.4444444444442131 0
0 0.388888888888966 0
0 0.3333333333337959 0
0 0.2777777777786257 0
0 0.2222222222231471 0
0 0.1666666666673604 0
0 0.1111111111115736 0
0 0.05555555555578678 0
1 6 0 8
59
60
61
62
63
64
65
66
1 0.5555555555555556 0
1 0.6111111111111112 0
1 0.6666666666666666 0
1 0.7222222222222222 0
1 0.7777777777777778 0
1 0.8333333333333333 0
1 0.8888888888888888 0
1 0.9444444444444444 0
1 7 0 18
67
68
69
70
71
72
73
74
75
76
77
78
79
80
81
82
83
84
0.9473684210524125 1 0
0.8947368421048248 1 0
0.8421052631576025 1 0
0.7894736842105994 1 0
0.7368421052635962 1 0
0.6842105263165927 1 0
0.6315789473695894 1 0
0.5789473684225861 1 0
0.5263157894755828 1 0
0.4736842105282874 1 0
0.4210526315806998 1 0
0.3684210526331123 1 0
0.3157894736855248 1 0
0.2631578947379374 1 0
0.21052631579035 1 0
0.1578947368427625 1 0
0.1052631578951749 1 0
0.05263157894758741 1 0
1 8 0 8
85
86
87
88
89
90
91
92
0 0.9444444444444444 0
0 0.8888888888888888 0
0 0.8333333333333334 0
0 0.7777777777777778 0
0 0.7222222222222222 0
0 0.6666666666666667 0
0 0.6111111111111112 0
0 0.5555555555555556 0
2 1 0 144
93
94
95
96
97
98
99
100
101
102
103
104
105
106
107
108
109
110
111
112
113
114
115
116
117
118
119
120
121
122
123
124
125
126
127
128
129
130
131
132
133
134
135
136
137
138
139
140
141
142
143
144
145
146
147
148
149
150
151
152
153
154
155
156
157
158
159
160
161
162
163
164
165
166
167
168
169
170
171
172
173
174
175
176
177
178
179
180
181
182
183
184
185
186
187
188
189
190
191
192
193
194
195
196
197
198
199
200
201
202
203
204
205
206
207
208
209
210
211
212
213
214
215
216
217
218
219
220
221
222
223
224
225
226
227
228
229
230
231
232
233
234
235
236
0.0526315789473016 0.05555555555576776 0
0.05263157894733676 0.1111111111115314 0
0.05263157894737232 0.1666666666672712 0
0.0526315789474081 0.2222222222229205 0
0.05263157894744393 0.2777777777783979 0
0.05263157894747979 0.3333333333337203 0
0.05263157894751565 0.388888888889015 0
0.05263157894755152 0.4444444444444303 0
0.1052631578945981 0.05555555555574825 0
0.1052631578946669 0.1111111111114883 0
0.1052631578947386 0.166666666667193 0
0.105263157894811 0.2222222222228076 0
0.1052631578948837 0.2777777777782879 0
0.1052631578949564 0.3333333333336594 0
0.1052631578950292 0.3888888888890197 0
0.105263157895102 0.4444444444444667 0
0.1578947368418795 0.05555555555572871 0
0.1578947368419854 0.1111111111114473 0
0.1578947368420951 0.1666666666671299 0
0.157894736842206 0.2222222222227301 0
0.1578947368423171 0.2777777777782147 0
0.1578947368424283 0.3333333333336107 0
0.1578947368425396 0.388888888889002 0
0.1578947368426509 0.444444444444467 0
0.2105263157891455 0.05555555555570943 0
0.2105263157892933 0.1111111111114083 0
0.2105263157894432 0.1666666666670734 0
0.210526315789594 0.2222222222226642 0
0.210526315789745 0.2777777777781534 0
0.2105263157898961 0.3333333333335664 0
0.2105263157900474 0.3888888888889787 0
0.2105263157901986 0.4444444444444589 0
0.2631578947364047 0.0555555555556904 0
0.2631578947365951 0.1111111111113703 0
0.2631578947367864 0.1666666666670192 0
0.2631578947369779 0.2222222222226021 0
0.2631578947371697 0.2777777777780958 0
0.2631578947373616 0.3333333333335238 0
0.2631578947375535 0.3888888888889542 0
0.2631578947377454 0.444444444444449 0
0.3157894736836618 0.05555555555567149 0
0.3157894736838943 0.1111111111113327 0
0.315789473684127 0.1666666666669659 0
0.3157894736843599 0.2222222222225412 0
0.3157894736845928 0.2777777777780394 0
0.3157894736848257 0.3333333333334819 0
0.3157894736850587 0.3888888888889298 0
0.3157894736852919 0.4444444444444386 0
0.368421052630919 0.05555555555565264 0
0.3684210526311933 0.1111111111112953 0
0.3684210526314669 0.1666666666669128 0
0.3684210526317401 0.2222222222224808 0
0.3684210526320132 0.2777777777779833 0
0.3684210526322864 0.3333333333334401 0
0.3684210526325599 0.3888888888889053 0
0.368421052632835 0.4444444444444282 0
0.4210526315781826 0.0555555555556338 0
0.4210526315784983 0.1111111111112579 0
0.4210526315788073 0.16666666666686 0
0.4210526315791143 0.2222222222224205 0
0.4210526315794205 0.2777777777779274 0
0.4210526315797268 0.3333333333333984 0
0.4210526315800351 0.3888888888888809 0
0.4210526315803564 0.4444444444444178 0
0.4736842105254763 0.05555555555561498 0
0.4736842105258208 0.1111111111112206 0
0.473684210526148 0.1666666666668071 0
0.4736842105264701 0.2222222222223602 0
0.473684210526791 0.2777777777778715 0
0.4736842105271122 0.3333333333333569 0
0.4736842105274385 0.3888888888888566 0
0.4736842105277984 0.4444444444444076 0
0.5263157894728323 0.05555555555559617 0
0.5263157894731693 0.1111111111111832 0
0.5263157894734868 0.1666666666667543 0
0.5263157894737982 0.2222222222223 0
0.526315789474108 0.2777777777778158 0
0.5263157894744183 0.3333333333333154 0
0.5263157894747363 0.3888888888888324 0
0.5263157894750929 0.4444444444443973 0
0.5789473684202477 0.05555555555557736 0
0.5789473684205416 0.1111111111111459 0
0.5789473684208245 0.1666666666667014 0
0.5789473684211029 0.2222222222222397 0
0.5789473684213799 0.27777777777776 0
0.5789473684216575 0.3333333333332739 0
0.5789473684219422 0.3888888888888081 0
0.5789473684222489 0.444444444444387 0
0.6315789473676903 0.05555555555555854 0
0.6315789473679283 0.1111111111111086 0
0.6315789473681628 0.1666666666666485 0
0.631578947368395 0.2222222222221793 0
0.6315789473686265 0.277777777777704 0
0.6315789473688586 0.3333333333332322 0
0.631578947369094 0.3888888888887838 0
0.6315789473693375 0.4444444444443767 0
0.6842105263151391 0.05555555555553972 0
0.684210526315321 0.1111111111110712 0
0.6842105263155018 0.1666666666665956 0
0.6842105263156818 0.222222222222119 0
0.6842105263158614 0.2777777777776482 0
0.6842105263160415 0.3333333333331907 0
0.6842105263162227 0.3888888888887594 0
0.6842105263164062 0.4444444444443664 0
0.7368421052625901 0.05555555555552091 0
0.7368421052627164 0.1111111111110338 0
0.7368421052628426 0.1666666666665427 0
0.7368421052629682 0.2222222222220588 0
0.7368421052630939 0.2777777777775923 0
0.7368421052632198 0.333333333333149 0
0.7368421052633458 0.388888888888735 0
0.7368421052634714 0.444444444444356 0
0.7894736842100448 0.05555555555550208 0
0.7894736842101195 0.1111111111109965 0
0.7894736842101943 0.1666666666664899 0
0.789473684210269 0.2222222222219985 0
0.7894736842103437 0.2777777777775365 0
0.7894736842104185 0.3333333333331074 0
0.7894736842104916 0.3888888888887108 0
0.7894736842105545 0.4444444444443456 0
0.8421052631575108 0.05555555555548326 0
0.8421052631575449 0.1111111111109592 0
0.8421052631575795 0.1666666666664371 0
0.8421052631576141 0.2222222222219383 0
0.8421052631576491 0.2777777777774807 0
0.8421052631576837 0.3333333333330659 0
0.8421052631577133 0.3888888888886865 0
0.8421052631577119 0.4444444444443353 0
0.8947368421049946 0.05555555555546483 0
0.8947368421050056 0.1111111111109221 0
0.894736842105017 0.1666666666663834 0
0.8947368421050287 0.2222222222218759 0
0.8947368421050403 0.2777777777774223 0
0.8947368421050514 0.3333333333330225 0
0.8947368421050547 0.3888888888886614 0
0.8947368421050176 0.4444444444443248 0
0.9473684210524941 0.05555555555544996 0
0.9473684210524965 0.111111111110887 0
0.9473684210524994 0.1666666666663234 0
0.9473684210525023 0.2222222222217957 0
0.9473684210525053 0.2777777777773438 0
0.9473684210525074 0.3333333333329676 0
0.9473684210525027 0.3888888888886321 0
0.9473684210524744 0.4444444444443128 0
2 2 0 144
237
238
239
240
241
242
243
244
245
246
247
248
249
250
251
252
253
254
255
256
257
258
259
260
261
262
263
264
265
266
267
268
269
270
271
272
273
274
275
276
277
278
279
280
281
282
283
284
285
286
287
288
289
290
291
292
293
294
295
296
297
298
299
300
301
302
303
304
305
306
307
308
309
310
311
312
313
314
315
316
317
318
319
320
321
322
323
324
325
326
327
328
329
330
331
332
333
334
335
336
337
338
339
340
341
342
343
344
345
346
347
348
349
350
351
352
353
354
355
356
357
358
359
360
361
362
363
364
365
366
367
368
369
370
371
372
373
374
375
376
377
378
379
380
0.9473684210524497 0.9444444444444446 0
0.9473684210524702 0.8888888888888892 0
0.947368421052476 0.8333333333333337 0
0.9473684210524774 0.7777777777777779 0
0.9473684210524779 0.722222222222222 0
0.9473684210524779 0.6666666666666664 0
0.9473684210524755 0.6111111111111109 0
0.947368421052458 0.5555555555555554 0
0.8947368421050069 0.9444444444444446 0
0.8947368421050554 0.8888888888888893 0
0.8947368421050688 0.8333333333333338 0
0.8947368421050722 0.7777777777777779 0
0.894736842105073 0.7222222222222218 0
0.8947368421050726 0.6666666666666662 0
0.8947368421050662 0.6111111111111108 0
0.8947368421050228 0.5555555555555554 0
0.8421052631577497 0.9444444444444446 0
0.8421052631578008 0.8888888888888893 0
0.8421052631578166 0.8333333333333338 0
0.8421052631578211 0.7777777777777779 0
0.8421052631578221 0.7222222222222218 0
0.8421052631578214 0.6666666666666662 0
0.8421052631578123 0.6111111111111107 0
0.8421052631577648 0.5555555555555554 0
0.7894736842106463 0.9444444444444446 0
0.7894736842106761 0.8888888888888893 0
0.7894736842106881 0.8333333333333338 0
0.789473684210692 0.7777777777777779 0
0.789473684210693 0.7222222222222218 0
0.7894736842106919 0.6666666666666662 0
0.7894736842106842 0.6111111111111107 0
0.789473684210656 0.5555555555555554 0
0.7368421052636117 0.9444444444444446 0
0.7368421052636236 0.8888888888888893 0
0.73684210526363 0.8333333333333338 0
0.7368421052636324 0.7777777777777779 0
0.7368421052636331 0.7222222222222218 0
0.7368421052636324 0.6666666666666662 0
0.7368421052636281 0.6111111111111107 0
0.7368421052636164 0.5555555555555554 0
0.6842105263165978 0.9444444444444446 0
0.6842105263166022 0.8888888888888893 0
0.6842105263166051 0.8333333333333338 0
0.6842105263166062 0.7777777777777779 0
0.6842105263166067 0.7222222222222218 0
0.6842105263166064 0.6666666666666662 0
0.6842105263166045 0.6111111111111107 0
0.6842105263165998 0.5555555555555554 0
0.6315789473695879 0.9444444444444446 0
0.6315789473695871 0.8888888888888893 0
0.6315789473695872 0.8333333333333338 0
0.6315789473695875 0.7777777777777779 0
0.6315789473695878 0.7222222222222218 0
0.6315789473695875 0.6666666666666662 0
0.6315789473695871 0.6111111111111107 0
0.6315789473695874 0.5555555555555554 0
0.578947368422555 0.9444444444444446 0
0.5789473684225376 0.8888888888888893 0
0.5789473684225325 0.8333333333333338 0
0.5789473684225311 0.7777777777777779 0
0.578947368422531 0.7222222222222218 0
0.5789473684225311 0.6666666666666662 0
0.578947368422533 0.6111111111111107 0
0.5789473684225476 0.5555555555555554 0
0.5263157894754259 0.9444444444444446 0
0.5263157894753808 0.8888888888888893 0
0.5263157894753683 0.8333333333333338 0
0.5263157894753652 0.7777777777777779 0
0.5263157894753646 0.7222222222222218 0
0.5263157894753648 0.6666666666666662 0
0.5263157894753706 0.6111111111111107 0
0.5263157894754107 0.5555555555555554 0
0.4736842105281184 0.9444444444444446 0
0.4736842105280656 0.8888888888888893 0
0.4736842105280497 0.8333333333333338 0
0.4736842105280453 0.7777777777777779 0
0.4736842105280443 0.7222222222222218 0
0.473684210528045 0.6666666666666662 0
0.473684210528054 0.6111111111111107 0
0.4736842105281027 0.5555555555555554 0
0.4210526315806462 0.9444444444444446 0
0.421052631580613 0.8888888888888893 0
0.4210526315806003 0.8333333333333338 0
0.4210526315805961 0.7777777777777779 0
0.421052631580595 0.7222222222222218 0
0.421052631580596 0.6666666666666662 0
0.4210526315806043 0.6111111111111107 0
0.4210526315806359 0.5555555555555554 0
0.3684210526330947 0.9444444444444446 0
0.3684210526330812 0.8888888888888893 0
0.3684210526330741 0.8333333333333338 0
0.3684210526330712 0.7777777777777779 0
0.3684210526330703 0.7222222222222218 0
0.3684210526330712 0.6666666666666662 0
0.3684210526330761 0.6111111111111107 0
0.3684210526330894 0.5555555555555554 0
0.3157894736855191 0.9444444444444446 0
0.3157894736855141 0.8888888888888893 0
0.315789473685511 0.8333333333333338 0
0.3157894736855095 0.7777777777777779 0
0.315789473685509 0.7222222222222218 0
0.3157894736855094 0.6666666666666662 0
0.3157894736855116 0.6111111111111107 0
0.3157894736855167 0.5555555555555554 0
0.2631578947379356 0.9444444444444446 0
0.2631578947379338 0.8888888888888893 0
0.2631578947379327 0.8333333333333338 0
0.2631578947379319 0.7777777777777779 0
0.2631578947379317 0.7222222222222218 0
0.2631578947379319 0.6666666666666662 0
0.2631578947379327 0.6111111111111107 0
0.2631578947379346 0.5555555555555554 0
0.2105263157903494 0.9444444444444446 0
0.2105263157903489 0.8888888888888893 0
0.2105263157903484 0.8333333333333338 0
0.2105263157903481 0.7777777777777779 0
0.2105263157903479 0.7222222222222218 0
0.210526315790348 0.6666666666666662 0
0.2105263157903484 0.6111111111111107 0
0.210526315790349 0.5555555555555554 0
0.1578947368427624 0.9444444444444446 0
0.1578947368427622 0.8888888888888893 0
0.157894736842762 0.8333333333333338 0
0.1578947368427619 0.7777777777777779 0
0.1578947368427618 0.7222222222222218 0
0.1578947368427619 0.6666666666666662 0
0.157894736842762 0.6111111111111107 0
0.1578947368427622 0.5555555555555554 0
0.105263157895175 0.9444444444444446 0
0.1052631578951749 0.8888888888888893 0
0.1052631578951749 0.8333333333333338 0
0.1052631578951748 0.7777777777777779 0
0.1052631578951748 0.7222222222222218 0
0.1052631578951748 0.6666666666666662 0
0.1052631578951749 0.6111111111111107 0
0.1052631578951749 0.5555555555555554 0
0.05263157894758745 0.9444444444444446 0
0.05263157894758746 0.8888888888888893 0
0.05263157894758744 0.8333333333333338 0
0.05263157894758743 0.7777777777777778 0
0.05263157894758742 0.7222222222222218 0
0.05263157894758742 0.6666666666666663 0
0.05263157894758744 0.6111111111111108 0
0.05263157894758744 0.5555555555555554 0
$EndNodes
$Elements
8 416 1 416
1 1 1 19
1 1 7 
2 7 8 
3 8 9 
4 9 10 
5 10 11 
6 11 12 
7 12 13 
8 13 14 
9 14 15 
10 15 16 
11 16 17 
12 17 18 
13 18 19 
14 19 20 
15 20 21 
16 21 22 
17 22 23 
18 23 24 
19 24 2 
1 2 1 9
20 2 25 
21 25 26 
22 26 27 
23 27 28 
24 28 29 
25 29 30 
26 30 31 
27 31 32 
28 32 6 
1 4 1 9
29 5 51 
30 51 52 
31 52 53 
32 53 54 
33 54 55 
34 55 56 
35 56 57 
36 57 58 
37 58 1 
1 6 1 9
38 6 59 
39 59 60 
40 60 61 
41 61 62 
42 62 63 
43 63 64 
44 64 65 
45 65 66 
46 66 3 
1 7 1 19
47 3 67 
48 67 68 
49 68 69 
50 69 70 
51 70 71 
52 71 72 
53 72 73 
54 73 74 
55 74 75 
56 75 76 
57 76 77 
58 77 78 
59 78 79 
60 79 80 
61 80 81 
62 81 82 
63 82 83 
64 83 84 
65 84 4 
1 8 1 9
66 4 85 
67 85 86 
68 86 87 
69 87 88 
70 88 89 
71 89 90 
72 90 91 
73 91 92 
74 92 5 
2 1 3 171
75 1 7 93 58 
76 58 93 94 57 
77 57 94 95 56 
78 56 95 96 55 
79 55 96 97 54 
80 54 97 98 53 
81 53 98 99 52 
82 52 99 100 51 
83 51 100 50 5 
84 7 8 101 93 
85 93 101 102 94 
86 94 102 103 95 
87 95 103 104 96 
88 96 104 105 97 
89 97 105 106 98 
90 98 106 107 99 
91 99 107 108 100 
92 100 108 49 50 
93 8 9 109 101 
94 101 109 110 102 
95 102 110 111 103 
96 103 111 112 104 
97 104 112 113 105 
98 105 113 114 106 
99 106 114 115 107 
100 107 115 116 108 
101 108 116 48 49 
102 9 10 117 109 
103 109 117 118 110 
104 110 118 119 111 
105 111 119 120 112 
106 112 120 121 113 
107 113 121 122 114 
108 114 122 123 115 
109 115 123 124 116 
110 116 124 47 48 
111 10 11 125 117 
112 117 125 126 118 
113 118 126 127 119 
114 119 127 128 120 
115 120 128 129 121 
116 121 129 130 122 
117 122 130 131 123 
118 123 131 132 124 
119 124 132 46 47 
120 11 12 133 125 
121 125 133 134 126 
122 126 134 135 127 
123 127 135 136 128 
124 128 136 137 129 
125 129 137 138 130 
126 130 138 139 131 
127 131 139 140 132 
128 132 140 45 46 
129 12 13 141 133 
130 133 141 142 134 
131 134 142 143 135 
132 135 143 144 136 
133 136 144 145 137 
134 137 145 146 138 
135 138 146 147 139 
136 139 147 148 140 
137 140 148 44 45 
138 13 14 149 141 
139 141 149 150 142 
140 142 150 151 143 
141 143 151 152 144 
142 144 152 153 145 
143 145 153 154 146 
144 146 154 155 147 
145 147 155 156 148 
146 148 156 43 44 
147 14 15 157 149 
148 149 157 158 150 
149 150 158 159 151 
150 151 159 160 152 
151 152 160 161 153 
152 153 161 162 154 
153 154 162 163 155 
154 155 163 164 156 
155 156 164 42 43 
156 15 16 165 157 
157 157 165 166 158 
158 158 166 167 159 
159 159 167 168 160 
160 160 168 169 161 
161 161 169 170 162 
162 162 170 171 163 
163 163 171 172 164 
164 164 172 41 42 
165 16 17 173 165 
166 165 173 174 166 
167 166 174 175 167 
168 167 175 176 168 
169 168 176 177 169 
170 169 177 178 170 
171 170 178 179 171 
172 171 179 180 172 
173 172 180 40 41 
174 17 18 181 173 
175 173 181 182 174 
176 174 182 183 175 
177 175 183 184 176 
178 176 184 185 177 
179 177 185 186 178 
180 178 186 187 179 
181 179 187 188 180 
182 180 188 39 40 
183 18 19 189 181 
184 181 189 190 182 
185 182 190 191 183 
186 183 191 192 184 
187 184 192 193 185 
188 185 193 194 186 
189 186 194 195 187 
190 187 195 196 188 
191 188 196 38 39 
192 19 20 197 189 
193 189 197 198 190 
194 190 198 199 191 
195 191 199 200 192 
196 192 200 201 193 
197 193 201 202 194 
198 194 202 203 195 
199 195 203 204 196 
200 196 204 37 38 
201 20 21 205 197 
202 197 205 206 198 
203 198 206 207 199 
204 199 207 208 200 
205 200 208 209 201 
206 201 209 210 202 
207 202 210 211 203 
208 203 211 212 204 
209 204 212 36 37 
210 21 22 213 205 
211 205 213 214 206 
212 206 214 215 207 
213 207 215 216 208 
214 208 216 217 209 
215 209 217 218 210 
216 210 218 219 211 
217 211 219 220 212 
218 212 220 35 36 
219 22 23 221 213 
220 213 221 222 214 
221 214 222 223 215 
222 215 223 224 216 
223 216 224 225 217 
224 217 225 226 218 
225 218 226 227 219 
226 219 227 228 220 
227 220 228 34 35 
228 23 24 229 221 
229 221 229 230 222 
230 222 230 231 223 
231 223 231 232 224 
232 224 232 233 225 
233 225 233 234 226 
234 226 234 235 227 
235 227 235 236 228 
236 228 236 33 34 
237 24 2 25 229 
238 229 25 26 230 
239 230 26 27 231 
240 231 27 28 232 
241 232 28 29 233 
242 233 29 30 234 
243 234 30 31 235 
244 235 31 32 236 
245 236 32 6 33 
2 2 3 171
246 3 67 237 66 
247 66 237 238 65 
248 65 238 239 64 
249 64 239 240 63 
250 63 240 241 62 
251 62 241 242 61 
252 61 242 243 60 
253 60 243 244 59 
254 59 244 33 6 
255 67 68 245 237 
256 237 245 246 238 
257 238 246 247 239 
258 239 247 248 240 
259 240 248 249 241 
260 241 249 250 242 
261 242 250 251 243 
262 243 251 252 244 
263 244 252 34 33 
264 68 69 253 245 
265 245 253 254 246 
266 246 254 255 247 
267 247 255 256 248 
268 248 256 257 249 
269 249 257 258 250 
270 250 258 259 251 
271 251 259 260 252 
272 252 260 35 34 
273 69 70 261 253 
274 253 261 262 254 
275 254 262 263 255 
276 255 263 264 256 
277 256 264 265 257 
278 257 265 266 258 
279 258 266 267 259 
280 259 267 268 260 
281 260 268 36 35 
282 70 71 269 261 
283 261 269 270 262 
284 262 270 271 263 
285 263 271 272 264 
286 264 272 273 265 
287 265 273 274 266 
288 266 274 275 267 
289 267 275 276 268 
290 268 276 37 36 
291 71 72 277 269 
292 269 277 278 270 
293 270 278 279 271 
294 271 279 280 272 
295 272 280 281 273 
296 273 281 282 274 
297 274 282 283 275 
298 275 283 284 276 
299 276 284 38 37 
300 72 73 285 277 
301 277 285 286 278 
302 278 286 287 279 
303 279 287 288 280 
304 280 288 289 281 
305 281 289 290 282 
306 282 290 291 283 
307 283 291 292 284 
308 284 292 39 38 
309 73 74 293 285 
310 285 293 294 286 
311 286 294 295 287 
312 287 295 296 288 
313 288 296 297 289 
314 289 297 298 290 
315 290 298 299 291 
316 291 299 300 292 
317 292 300 40 39 
318 74 75 301 293 
319 293 301 302 294 
320 294 302 303 295 
321 295 303 304 296 
322 296 304 305 297 
323 297 305 306 298 
324 298 306 307 299 
325 299 307 308 300 
326 300 308 41 40 
327 75 76 309 301 
328 301 309 310 302 
329 302 310 311 303 
330 303 311 312 304 
331 304 312 313 305 
332 305 313 314 306 
333 306 314 315 307 
334 307 315 316 308 
335 308 316 42 41 
336 76 77 317 309 
337 309 317 318 310 
338 310 318 319 311 
339 311 319 320 312 
340 312 320 321 313 
341 313 321 322 314 
342 314 322 323 315 
343 315 323 324 316 
344 316 324 43 42 
345 77 78 325 317 
346 317 325 326 318 
347 318 326 327 319 
348 319 327 328 320 
349 320 328 329 321 
350 321 329 330 322 
351 322 330 331 323 
352 323 331 332 324 
353 324 332 44 43 
354 78 79 333 325 
355 325 333 334 326 
356 326 334 335 327 
357 327 335 336 328 
358 328 336 337 329 
359 329 337 338 330 
360 330 338 339 331 
361 331 339 340 332 
362 332 340 45 44 
363 79 80 341 333 
364 333 341 342 334 
365 334 342 343 335 
366 335 343 344 336 
367 336 344 345 337 
368 337 345 346 338 
369 338 346 347 339 
370 339 347 348 340 
371 340 348 46 45 
372 80 81 349 341 
373 341 349 350 342 
374 342 350 351 343 
375 343 351 352 344 
376 344 352 353 345 
377 345 353 354 346 
378 346 354 355 347 
379 347 355 356 348 
380 348 356 47 46 
381 81 82 357 349 
382 349 357 358 350 
383 350 358 359 351 
384 351 359 360 352 
385 352 360 361 353 
386 353 361 362 354 
387 354 362 363 355 
388 355 363 364 356 
389 356 364 48 47 
390 82 83 365 357 
391 357 365 366 358 
392 358 366 367 359 
393 359 367 368 360 
394 360 368 369 361 
395 361 369 370 362 
396 362 370 371 363 
397 363 371 372 364 
398 364 372 49 48 
399 83 84 373 365 
400 365 373 374 366 
401 366 374 375 367 
402 367 375 376 368 
403 368 376 377 369 
404 369 377 378 370 
405 370 378 379 371 
406 371 379 380 372 
407 372 380 50 49 
408 84 4 85 373 
409 373 85 86 374 
410 374 86 87 375 
411 375 87 88 376 
412 376 88 89 377 
413 377 89 90 378 
414 378 90 91 379 
415 379 91 92 380 
416 380 92 5 50 
$EndElements
